Coordinates
version=1
nRows=4
nColumns=107
inDegrees=yes

Units are S.I. units (second, meters, Newtons, ...)
If the header above contains a line with 'inDegrees', this indicates whether rotational values are in degrees (yes) or radians (no).

endheader
time	sternoclavicular_r2	sternoclavicular_r3	unrotscap_r3	unrotscap_r2	acromioclavicular_r2	acromioclavicular_r3	acromioclavicular_r1	unrothum_r1	unrothum_r3	unrothum_r2	elv_angle	shoulder_elv	shoulder1_r2	shoulder_rot	elbow_flexion	pro_sup	deviation	flexion	proximal_distal_r1	proximal_distal_r3	cmc_flexion	cmc_abduction	mp_flexion	ip_flexion	mcp2_flexion	mcp2_abduction	pm2_flexion	md2_flexion	mcp3_flexion	mcp3_abduction	pm3_flexion	md3_flexion	mcp4_flexion	mcp4_abduction	pm4_flexion	md4_flexion	mcp5_flexion	mcp5_abduction	pm5_flexion	md5_flexion	bicpt_tx	bicpt_ty	bicpt_tz	bicpt2_tx	bicpt2_ty	bicpt2_tz	ptpt_tx	ptpt_ty	ptpt_tz	FCUpt_tx	FCUpt_ty	FCUpt_tz	EDCpt_tx	EDCpt_ty	EDCpt_tz	APLpt_tx	APLpt_ty	APLpt_tz	FPLpt_tx	FPLpt_ty	FPLpt_tz	FPLpt2_tx	FPLpt2_ty	FPLpt2_tz	PEC1pt2_tx	PEC1pt2_ty	PEC1pt2_tz	PEC1pt3_tx	PEC1pt3_ty	PEC1pt3_tz	PEC2pt2_tx	PEC2pt2_ty	PEC2pt2_tz	PEC2pt3_tx	PEC2pt3_ty	PEC2pt3_tz	PEC3pt2_tx	PEC3pt2_ty	PEC3pt2_tz	PEC3pt3_tx	PEC3pt3_ty	PEC3pt3_tz	DELT2pt2a_tx	DELT2pt2a_ty	DELT2pt2a_tz	DELT2pt2_tx	DELT2pt2_ty	DELT2pt2_tz	LAT1pt2_tx	LAT1pt2_ty	LAT1pt2_tz	LAT1pt3_tx	LAT1pt3_ty	LAT1pt3_tz	LAT2pt2_tx	LAT2pt2_ty	LAT2pt2_tz	LAT2pt3_tx	LAT2pt3_ty	LAT2pt3_tz	LAT3pt2_tx	LAT3pt2_ty	LAT3pt2_tz	LAT3pt3_tx	LAT3pt3_ty	LAT3pt3_tz
      0.00000000	     -0.31631647	      0.13397673	     -0.13397673	      0.31631647	     -0.06404765	      0.51761058	      0.23266239	     -0.23266239	     -0.51761058	      0.06404765	     99.84013280	     74.89073523	     -1.74253904	    -26.39966977	     28.67051198	     12.36337078	     -0.05342448	     -0.92715423	     -0.07484065	     -0.46357712	     -9.98662464	      5.09603745	    -31.39159221	      6.21809274	     10.98743247	     11.31847194	      9.81660149	    -27.37825600	     49.66837214	     11.42151136	     87.18778091	     73.04103579	     44.07016937	     -7.49830438	     83.91271107	     58.04821673	    -10.35554830	     -4.92921379	    -12.11437157	      4.90905980	      0.00084833	     -0.03088608	     -0.00482930	      0.01564910	     -0.01798849	     -0.00988483	      0.00663649	     -0.06549069	     -0.00104594	      0.00511568	     -0.18396153	      0.00009736	     -0.00148360	      0.00037388	      0.00013785	      0.00022873	      0.00009149	      0.00045745	      0.00029277	      0.00087831	      0.00049405	     -0.00133480	      0.00030507	      0.00036609	      0.00245475	      0.00861244	      0.00599126	     -0.00802996	      0.01938840	     -0.01838985	      0.00245475	      0.00861244	      0.00599126	      0.00054088	      0.01797379	     -0.00944456	      0.00389933	      0.00478927	      0.01584758	      0.00000000	      0.00749904	      0.00000000	     -0.00703141	     -0.03249429	     -0.00618168	      0.01719532	     -0.00063615	     -0.00582736	     -0.00087373	      0.01464531	     -0.00599126	      0.00241315	      0.02113585	     -0.01747452	     -0.00586645	      0.01268983	     -0.00536717	     -0.01223216	      0.02679426	     -0.02999793	     -0.02296651	      0.01418765	     -0.00719784	     -0.01522780	      0.03095486	     -0.03748701
      0.03333333	     -0.31593570	      0.13381545	     -0.13381545	      0.31593570	     -0.06397055	      0.51698751	      0.23238233	     -0.23238233	     -0.51698751	      0.06397055	     99.92450085	     74.80058558	     -1.74401154	    -27.00504642	     28.77082582	     13.60945230	     -0.04599906	     -0.87557484	     -0.06415864	     -0.43778742	     -9.79244577	      3.39399090	    -31.96996781	      6.66333702	      9.52360822	     11.13009156	      9.56737072	    -25.69975244	     48.91231264	     11.39689495	     86.96509790	     72.63389697	     43.04324822	     -6.91238385	     84.39340539	     57.87513262	    -11.38683831	     -4.16118650	    -11.94022732	      4.91465621	      0.00085165	     -0.03089758	     -0.00483115	      0.01572847	     -0.01801574	     -0.00979903	      0.00654442	     -0.06555023	     -0.00114631	      0.00523074	     -0.18394517	      0.00006316	     -0.00163313	      0.00041418	      0.00014715	      0.00025385	      0.00010154	      0.00050771	      0.00032493	      0.00097480	      0.00054833	     -0.00128177	      0.00029807	      0.00035768	      0.00245180	      0.00860207	      0.00598405	     -0.00802029	      0.01936506	     -0.01836771	      0.00245180	      0.00860207	      0.00598405	      0.00054023	      0.01795216	     -0.00943319	      0.00389587	      0.00478350	      0.01583895	      0.00000000	      0.00748088	      0.00000000	     -0.00702295	     -0.03245517	     -0.00616660	      0.01749037	     -0.00065620	     -0.00609667	     -0.00087267	      0.01462768	     -0.00598405	      0.00241024	      0.02111041	     -0.01745348	     -0.00585938	      0.01267455	     -0.00536071	     -0.01221744	      0.02676201	     -0.02996182	     -0.02293887	      0.01417057	     -0.00718917	     -0.01520947	      0.03091760	     -0.03744188
      0.06666667	     -0.31613721	      0.13390080	     -0.13390080	      0.31613721	     -0.06401136	      0.51731726	      0.23253055	     -0.23253055	     -0.51731726	      0.06401136	     99.99754244	     74.84829559	     -1.74528636	    -26.87964495	     28.56863823	     13.68498676	     -0.04706452	     -0.87457093	     -0.06568610	     -0.43728547	     -9.79618070	      3.31025779	    -31.99242417	      6.65007566	      9.54171127	     11.10964836	      9.57799000	    -25.69944701	     48.90824075	     11.33339242	     86.90119569	     72.61029670	     43.04345905	     -6.92808403	     84.37717711	     57.86044594	    -11.39466464	     -4.08116292	    -11.94604317	      4.91558904	      0.00084496	     -0.03087440	     -0.00482742	      0.01573313	     -0.01796081	     -0.00979374	      0.00653883	     -0.06555384	     -0.00115240	      0.00523774	     -0.18394416	      0.00006113	     -0.00164219	      0.00041664	      0.00014768	      0.00025426	      0.00010171	      0.00050853	      0.00032546	      0.00097637	      0.00054921	     -0.00128326	      0.00029822	      0.00035786	      0.00245336	      0.00860756	      0.00598787	     -0.00802541	      0.01937741	     -0.01837943	      0.00245336	      0.00860756	      0.00598787	      0.00054057	      0.01796361	     -0.00943921	      0.00389770	      0.00478656	      0.01584352	      0.00000000	      0.00749048	      0.00000000	     -0.00702743	     -0.03247587	     -0.00617458	      0.01742965	     -0.00065204	     -0.00604048	     -0.00087323	      0.01463701	     -0.00598787	      0.00241178	      0.02112387	     -0.01746462	     -0.00586312	      0.01268264	     -0.00536413	     -0.01222523	      0.02677908	     -0.02998093	     -0.02295350	      0.01417961	     -0.00719376	     -0.01521917	      0.03093732	     -0.03746576
      0.10000000	     -0.31558007	      0.13366482	     -0.13366482	      0.31558007	     -0.06389855	      0.51640557	      0.23212075	     -0.23212075	     -0.51640557	      0.06389855	    100.13290583	     74.71638768	     -1.74764890	    -27.79920310	     28.58280569	     14.65748796	     -0.05794993	     -0.85035526	     -0.08139460	     -0.42517763	     -9.49885141	      1.45837326	    -32.35557327	      5.03232861	      8.31028864	     10.79900537	     10.11625348	    -26.50666966	     48.23380532	     11.08902817	     86.65417474	     71.15501715	     42.09135142	     -6.79709915	     85.44492495	     55.20177922	    -11.86124204	     -3.31199365	    -13.95625945	      4.96573188	      0.00084543	     -0.03087603	     -0.00482768	      0.01579244	     -0.01796466	     -0.00972515	      0.00646698	     -0.06560030	     -0.00123074	      0.00532789	     -0.18393107	      0.00003531	     -0.00175889	      0.00044845	      0.00015432	      0.00026447	      0.00010579	      0.00052895	      0.00033853	      0.00101558	      0.00057126	     -0.00120533	      0.00028760	      0.00034512	      0.00244904	      0.00859239	      0.00597732	     -0.00801126	      0.01934326	     -0.01834704	      0.00244904	      0.00859239	      0.00597732	      0.00053962	      0.01793195	     -0.00942257	      0.00389264	      0.00477812	      0.01583088	      0.00000000	      0.00746393	      0.00000000	     -0.00701504	     -0.03241864	     -0.00615253	      0.01787004	     -0.00068269	     -0.00645727	     -0.00087169	      0.01461122	     -0.00597732	      0.00240753	      0.02108664	     -0.01743384	     -0.00585279	      0.01266029	     -0.00535468	     -0.01220369	      0.02673189	     -0.02992809	     -0.02291304	      0.01415462	     -0.00718108	     -0.01519234	      0.03088280	     -0.03739973
